<svg width="130" height="82" fill="none" xmlns="http://www.w3.org/2000/svg"><path d="M35.593 81.25h.004c5.471 0 10.36-1.147 14.661-3.445l.003-.002a35.992 35.992 0 0010.984-9.32c3.03-3.843 5.32-8.13 6.872-12.858 1.624-4.726 2.437-9.491 2.437-14.294 0-4.29-.74-8.76-2.216-13.41-1.477-4.654-3.693-8.976-6.647-12.964-2.886-3.995-6.511-7.25-10.874-9.766-4.305-2.523-9.381-3.78-15.22-3.78-5.4 0-10.253 1.184-14.553 3.557-4.291 2.294-7.954 5.402-10.986 9.322-3.029 3.842-5.356 8.128-6.98 12.855h0l-.002.003C1.526 31.873.75 36.601.75 41.331c0 4.435.74 8.979 2.215 13.629a45.553 45.553 0 006.537 12.963l.003.004c2.96 3.922 6.622 7.104 10.985 9.545 4.375 2.447 9.412 3.704 15.104 3.778zm12.345-24.502l-.001.003c-1.232 2.318-2.86 4.236-4.885 5.755-2.007 1.433-4.487 2.156-7.455 2.156-2.748 0-5.122-.686-7.132-2.05-2.023-1.374-3.687-3.181-4.991-5.428a29.534 29.534 0 01-2.948-7.534 46.268 46.268 0 01-.986-8.323c0-2.476.292-5.064.875-7.765.657-2.77 1.604-5.32 2.84-7.649 1.306-2.32 2.97-4.2 4.995-5.646l.001-.001c2.083-1.508 4.564-2.267 7.456-2.267 2.673 0 5.01.686 7.021 2.05 2.022 1.373 3.686 3.216 4.991 5.536h0l.005.008c1.38 2.254 2.4 4.763 3.055 7.53v.002a34.57 34.57 0 01.985 8.206c0 2.475-.328 5.063-.985 7.764h0l-.001.006a28.435 28.435 0 01-2.84 7.647zm81.566 7.282v-.25h-13.993V.75H97.243l-.053.026c-.07.035-.16.107-.25.186-.102.086-.231.204-.388.352-.315.296-.749.72-1.3 1.272-1.093 1.093-2.516 2.334-4.273 3.726a34.966 34.966 0 01-5.796 3.499l-.003.001c-2.028 1.014-4.01 1.517-5.948 1.517h-.25v16.698h.25c1.506 0 3.188-.339 5.043-1.007a39.458 39.458 0 005.433-2.44h0l.007-.003c1.77-1.033 3.322-2.068 4.655-3.104l.001-.001c1.124-.888 2.02-1.71 2.68-2.468V63.78H81.517v16.368h47.988V64.03z" stroke="#fff" stroke-width=".5"/></svg>