<svg width="138" height="82" fill="none" xmlns="http://www.w3.org/2000/svg"><path d="M35.502 81.25h.003c5.458 0 10.334-1.143 14.624-3.436l.003-.002a35.897 35.897 0 0010.954-9.295c3.022-3.832 5.307-8.107 6.854-12.822 1.62-4.713 2.43-9.465 2.43-14.255 0-4.279-.737-8.736-2.209-13.373-1.473-4.641-3.683-8.951-6.63-12.929-2.877-3.984-6.493-7.231-10.845-9.739-4.293-2.516-9.357-3.77-15.18-3.77-5.386 0-10.226 1.18-14.515 3.547-4.28 2.288-7.933 5.387-10.957 9.296-3.021 3.832-5.342 8.106-6.963 12.82h0v.004C1.523 32.008.75 36.723.75 41.44c0 4.423.737 8.954 2.21 13.592A45.427 45.427 0 009.479 67.96h0l.003.004c2.951 3.91 6.604 7.084 10.956 9.518 4.364 2.44 9.388 3.694 15.064 3.768zm12.311-24.436v.003c-1.23 2.312-2.853 4.224-4.873 5.74-2 1.428-4.474 2.149-7.434 2.149-2.74 0-5.108-.684-7.113-2.045-2.018-1.37-3.677-3.172-4.978-5.412a29.452 29.452 0 01-2.94-7.513 46.14 46.14 0 01-.983-8.3c0-2.47.29-5.05.873-7.743.654-2.763 1.599-5.305 2.832-7.628 1.302-2.313 2.963-4.189 4.981-5.63l.002-.002c2.076-1.504 4.551-2.26 7.435-2.26 2.666 0 4.997.684 7.003 2.045 2.017 1.368 3.676 3.206 4.977 5.52h0l.005.008c1.377 2.247 2.393 4.75 3.047 7.51h0a34.5 34.5 0 01.982 8.184c0 2.468-.327 5.05-.982 7.743h0l-.001.006a28.355 28.355 0 01-2.833 7.625zm30.633 23.087v.25h58.742V63.827h-36.163a40.59 40.59 0 011.933-2.672c.792-1.008 1.84-2.058 3.148-3.148 1.384-1.092 3.135-2.332 5.254-3.721 2.118-1.387 4.823-2.996 8.116-4.826h.001l.008-.004a79.283 79.283 0 006.834-4.63c2.139-1.623 4.02-3.393 5.645-5.313l.002-.003c1.63-2 2.889-4.223 3.778-6.666l.001-.003c.89-2.521 1.333-5.334 1.333-8.434 0-4.727-1.072-8.875-3.222-12.436-2.079-3.563-5.159-6.305-9.227-8.23-4.072-1.998-9.02-2.991-14.834-2.991-3.754 0-7.253.405-10.498 1.216-3.239.736-6.186 1.767-8.842 3.095-2.649 1.25-4.97 2.614-6.963 4.09-1.988 1.472-3.613 2.912-4.873 4.32l-.153.17.158.168 10.989 11.648.181.193.182-.192c1.305-1.377 2.866-2.685 4.684-3.922h0l.006-.003a27.99 27.99 0 015.991-3.268h0l.006-.003a16.72 16.72 0 016.714-1.408c1.873 0 3.479.36 4.829 1.07l.007.004.007.003c1.419.639 2.476 1.592 3.18 2.86l.004.008.005.007c.772 1.194 1.169 2.754 1.169 4.7 0 2.512-.717 4.73-2.149 6.664l-.001.001c-1.372 1.878-3.181 3.58-5.431 5.104a97.42 97.42 0 01-7.34 4.273 122.715 122.715 0 00-7.486 4.183c-3.165 1.913-5.784 3.941-7.853 6.084h0a24.47 24.47 0 00-4.774 7.105c-1.183 2.663-1.995 5.69-2.437 9.08-.441 3.384-.661 7.352-.661 11.901z" stroke="#fff" stroke-width=".5"/></svg>