<svg width="134" height="82" fill="none" xmlns="http://www.w3.org/2000/svg"><path d="M35.312 81.25h.003c5.427 0 10.277-1.144 14.544-3.436l.003-.002a35.75 35.75 0 0010.894-9.295c3.005-3.833 5.277-8.107 6.816-12.822 1.611-4.713 2.417-9.465 2.417-14.255 0-4.278-.733-8.736-2.197-13.372a44.009 44.009 0 00-6.593-12.93c-2.862-3.984-6.458-7.23-10.786-9.739-4.27-2.516-9.306-3.77-15.098-3.77-5.356 0-10.17 1.18-14.436 3.547-4.256 2.288-7.889 5.388-10.897 9.297-3.004 3.832-5.312 8.106-6.924 12.82h0v.003C1.52 32.008.75 36.723.75 41.44c0 4.423.733 8.954 2.197 13.591A45.525 45.525 0 009.43 67.96l.003.004c2.936 3.911 6.569 7.084 10.897 9.519 4.34 2.44 9.336 3.694 14.982 3.768zm12.242-24.435l-.002.002c-1.221 2.313-2.836 4.225-4.845 5.74-1.99 1.428-4.448 2.149-7.392 2.149-2.725 0-5.078-.684-7.072-2.044-2.006-1.37-3.657-3.172-4.95-5.412a29.55 29.55 0 01-2.924-7.514 46.375 46.375 0 01-.978-8.3c0-2.47.29-5.05.868-7.744.651-2.762 1.59-5.305 2.817-7.628 1.295-2.313 2.946-4.188 4.954-5.63v-.001c2.066-1.504 4.527-2.26 7.394-2.26 2.65 0 4.968.684 6.963 2.045 2.005 1.368 3.655 3.206 4.95 5.52h0l.004.008c1.37 2.246 2.38 4.749 3.03 7.51h0c.652 2.692.977 5.42.977 8.184 0 2.468-.325 5.05-.976 7.743h0l-.002.006a28.456 28.456 0 01-2.816 7.626zM92.19 79.593h0l.007.002c3.373.81 7.035 1.215 10.986 1.215 5.999 0 11.276-.882 15.828-2.654l.003-.001c4.55-1.845 8.121-4.396 10.703-7.66l.002-.001c2.587-3.346 3.877-7.357 3.877-12.022 0-3.403-.699-6.518-2.101-9.338-1.328-2.89-3.21-5.267-5.646-7.123-2.089-1.64-4.492-2.758-7.207-3.355 2.432-.688 4.615-1.745 6.547-3.169l.004-.003c2.215-1.708 3.916-3.79 5.099-6.243 1.256-2.526 1.883-5.275 1.883-8.241 0-4.007-1.145-7.54-3.438-10.59-2.289-3.044-5.46-5.414-9.501-7.113-4.044-1.7-8.741-2.547-14.085-2.547a46.25 46.25 0 00-11.098 1.326c-3.589.884-6.851 2.137-9.787 3.76-2.865 1.551-5.151 3.403-6.851 5.559l-.128.162.135.156L88.68 24.68l.229.265.175-.303c1.51-2.602 3.52-4.659 6.033-6.175 2.51-1.514 5.306-2.272 8.395-2.272 1.865 0 3.505.325 4.924.967h0l.01.004c1.412.568 2.499 1.451 3.271 2.65l.005.008.005.007c.838 1.124 1.262 2.463 1.262 4.026 0 2.76-1.293 4.955-3.924 6.6-2.644 1.58-6.164 2.38-10.58 2.38H94.52v13.138h3.747c3.701 0 6.808.365 9.329 1.09h0l.006.001c2.519.651 4.36 1.693 5.555 3.106h0l.004.005c1.191 1.338 1.795 3.07 1.795 5.219 0 1.856-.496 3.45-1.48 4.794-.986 1.274-2.4 2.274-4.258 2.993-1.86.647-4.124.974-6.799.974-2.601 0-4.943-.327-7.027-.978-2.017-.651-3.814-1.52-5.393-2.601-1.513-1.16-2.807-2.426-3.885-3.798l-.204-.26-.194.267-9.07 12.417-.114.155.12.15a31.755 31.755 0 006.72 6.202l.004.003c2.574 1.701 5.514 2.994 8.815 3.88z" stroke="#fff" stroke-width=".5"/></svg>