<svg width="137" height="82" fill="none" xmlns="http://www.w3.org/2000/svg"><path d="M35.837 81.25h.003c5.51 0 10.434-1.154 14.765-3.47h.003a36.243 36.243 0 0011.06-9.385c3.05-3.87 5.358-8.186 6.92-12.947 1.636-4.758 2.454-9.556 2.454-14.392 0-4.32-.745-8.82-2.23-13.502-1.489-4.686-3.72-9.038-6.695-13.054-2.905-4.023-6.556-7.3-10.95-9.833C46.833 2.127 41.72.861 35.84.861c-5.437 0-10.324 1.192-14.654 3.58-4.321 2.31-8.01 5.44-11.063 9.387-3.05 3.869-5.393 8.184-7.03 12.944h0v.003C1.53 31.533.75 36.294.75 41.055c0 4.467.744 9.042 2.23 13.724a45.864 45.864 0 006.583 13.053h0l.003.004c2.98 3.948 6.668 7.152 11.062 9.61 4.406 2.464 9.478 3.73 15.21 3.804zM48.27 56.58l-.001.003c-1.24 2.335-2.88 4.266-4.92 5.796-2.02 1.443-4.519 2.171-7.508 2.171-2.768 0-5.159-.69-7.183-2.065-2.038-1.383-3.714-3.203-5.028-5.465a29.738 29.738 0 01-2.969-7.587 46.588 46.588 0 01-.992-8.38c0-2.494.293-5.1.881-7.82.661-2.79 1.615-5.357 2.86-7.702 1.315-2.337 2.992-4.23 5.03-5.687h.002c2.098-1.52 4.597-2.283 7.51-2.283 2.691 0 5.045.69 7.071 2.065 2.037 1.382 3.713 3.238 5.027 5.574h0l.005.008c1.39 2.27 2.416 4.796 3.076 7.583v.002c.662 2.717.992 5.471.992 8.263 0 2.492-.33 5.099-.991 7.818h0l-.002.007a28.627 28.627 0 01-2.86 7.7zm60.445 23.2v.25h18.253V63.496h9.764V47.13h-9.764V.75h-12.466l-.075.095-36.616 46.38-.053.068v16.204h30.957v16.282zm1.997-51.42v18.77H96.16l14.552-18.77z" stroke="#fff" stroke-width=".5"/></svg>