<svg width="15" height="15" fill="none" xmlns="http://www.w3.org/2000/svg"><g clip-path="url(#clip0_317:1457)" fill="#FFB932"><path fill-rule="evenodd" clip-rule="evenodd" d="M7.644.957c-2.858 0-5.187 2.352-5.187 5.266 0 2.045 1.307 4.003 2.704 5.498a18.776 18.776 0 002.483 2.212 18.772 18.772 0 002.483-2.212c1.396-1.495 2.703-3.453 2.703-5.498 0-2.914-2.328-5.266-5.186-5.266zm0 13.564l-.269.397-.001-.001-.004-.003-.014-.01-.051-.035a17.857 17.857 0 01-.847-.643 19.728 19.728 0 01-1.997-1.851C3.026 10.838 1.5 8.647 1.5 6.223 1.5 2.793 4.244 0 7.644 0c3.399 0 6.143 2.793 6.143 6.223 0 2.424-1.525 4.615-2.961 6.152a19.73 19.73 0 01-2.844 2.494l-.05.035-.014.01-.004.003h-.002l-.268-.396zm0 0l.268.397a.479.479 0 01-.537 0l.269-.397z"/><path d="M7.644 2.992a3.191 3.191 0 110 6.383 3.191 3.191 0 010-6.383zm1.3 4.412c.237-.166.29-.425.295-.687.006-.26-.093-.44-.228-.54a.955.955 0 00-.325-.143s.161-.093.228-.187a.71.71 0 00.105-.315c.005-.076.018-.392-.229-.574-.19-.141-.41-.197-.703-.215v-.64h-.394v.632h-.3v-.631H7v.63h-.775v.41h.227c.062 0 .173.007.22.06.047.052.055.08.055.181v1.63c0 .039-.007.087-.04.118-.034.032-.067.039-.146.039h-.236l-.08.473H7v.63h.393v-.63h.3v.63h.394v-.64c.102-.006.197-.014.252-.021.113-.015.367-.044.604-.21zm-.673-.972c.074.037.203.118.203.311s-.109.27-.2.32c-.09.05-.27.094-.444.107-.175.013-.437.007-.437.007v-.844s.25-.013.446 0c.195.012.359.062.432.1zm-.55-.491c-.144.005-.328 0-.328 0v-.76s.126-.012.249-.01.232.006.394.055c.162.05.257.172.26.315a.308.308 0 01-.168.3.966.966 0 01-.407.1z"/></g><defs><clipPath id="clip0_317:1457"><path fill="#fff" d="M0 0h15v15H0z"/></clipPath></defs></svg>