<svg width="18" height="18" fill="none" xmlns="http://www.w3.org/2000/svg"><path d="M9 0c2.445 0 2.75.009 3.71.054.958.045 1.61.195 2.185.418A4.388 4.388 0 0116.49 1.51c.457.45.812.994 1.038 1.595.222.573.373 1.227.418 2.185.042.96.054 1.265.054 3.71 0 2.445-.009 2.75-.054 3.71-.045.958-.196 1.61-.419 2.185a4.395 4.395 0 01-1.037 1.595 4.44 4.44 0 01-1.595 1.038c-.573.222-1.227.373-2.185.418-.96.042-1.265.054-3.71.054-2.445 0-2.75-.009-3.71-.054-.958-.045-1.61-.196-2.185-.419A4.402 4.402 0 011.51 16.49a4.414 4.414 0 01-1.038-1.595C.25 14.322.1 13.668.054 12.71.012 11.75 0 11.445 0 9c0-2.445.009-2.75.054-3.71s.195-1.61.418-2.185A4.392 4.392 0 011.51 1.51c.45-.458.994-.812 1.595-1.038C3.679.25 4.331.1 5.29.054 6.25.012 6.555 0 9 0zm0 4.5a4.5 4.5 0 100 9 4.5 4.5 0 000-9zm5.85-.225a1.125 1.125 0 10-2.25 0 1.125 1.125 0 002.25 0zM9 6.3a2.7 2.7 0 110 5.4 2.7 2.7 0 010-5.4z" fill="#fff"/></svg>