<svg width="25" height="26" fill="none" xmlns="http://www.w3.org/2000/svg"><g clip-path="url(#clip0)"><path d="M12.5-.015C5.587-.015 0 5.58 0 12.502c0 1.391.237 2.713.643 3.966H4.37V5.953l8.13 8.143 8.131-8.143v10.515h3.728a12.89 12.89 0 00.643-3.966c0-6.918-5.587-12.517-12.5-12.517H12.5zm-1.863 15.947L7.08 12.367v6.616H1.831C4.032 22.577 8 24.985 12.5 24.985c4.5 0 8.5-2.408 10.673-6.006H17.92v-6.612l-3.525 3.56-1.863 1.868-1.887-1.868h-.01l.002.005z" fill="#4D4B4C"/><path fill-rule="evenodd" clip-rule="evenodd" d="M0 12.502C0 5.58 5.587-.015 12.5-.015h.002c6.913 0 12.5 5.599 12.5 12.517 0 1.391-.24 2.713-.643 3.966H20.63V5.953l-8.13 8.143-8.13-8.143v10.515H.642A12.796 12.796 0 010 12.502z" fill="#FF6702"/></g><defs><clipPath id="clip0"><path fill="#fff" transform="translate(0 .517)" d="M0 0h25v25.037H0z"/></clipPath></defs></svg>